<svg version="1.1" xmlns="http://www.w3.org/2000/svg" viewBox="0 0 1109.83203125 570.8906822435557" width="2219.6640625" height="1141.7813644871114">
  <!-- svg-source:excalidraw -->
  
  <defs>
    <style>
      @font-face {
        font-family: "Virgil";
        src: url("https://excalidraw.com/Virgil.woff2");
      }
      @font-face {
        font-family: "Cascadia";
        src: url("https://excalidraw.com/Cascadia.woff2");
      }
    </style>
  </defs>
  <rect x="0" y="0" width="1109.83203125" height="570.8906822435557" fill="#ffffff"></rect><g transform="translate(10 163.74595675133168) rotate(0 136.185546875 79.93554687499997)"><path d="M-1.164697995374371 0.8734733149850321 C58.991222367212465 -0.5198994061493765, 115.23610006814967 -0.7611073518319045, 271.34178729613507 -0.7945080279946926 M-0.2130413124280673 0.5307887160130778 C107.352216134405 1.2077219944388724, 214.63761987834513 0.1541018796082122, 272.97377612203553 0.658483451048904 M272.1694787796587 -0.15623334608972073 C270.8197042515174 34.61032561847933, 270.91812135480797 65.96840107779936, 272.1207969840616 161.7959051374346 M272.02805681247264 -0.7360113831236959 C273.7868136128965 52.24918473217294, 274.1847519537988 105.65235245849253, 273.069131356664 160.84440502803773 M271.906025831121 158.85575998400176 C171.6830515389959 160.41445146155186, 69.24919204137527 158.2178359010906, 0.7574876716462168 160.76808004078367 M271.8766847969104 159.38547279170595 C171.4278117937908 158.037257434302, 71.45412395805785 158.40003236236464, 0.08770629712483304 160.13504565031604 M-1.5719859544187784 158.5370880011469 C-0.5661355127090428 100.5085295673507, -0.18701391112746935 43.360672198617976, -0.712148005142808 -0.09635624848306179 M0.30109955091029406 160.24751574080437 C1.1969710334977206 105.74807716751349, 1.7319924279889163 51.50932260758928, 0.8139701308682561 -0.8478128584101796" stroke="#000000" stroke-width="1" fill="none"></path></g><g transform="translate(429.83984375 160.69126925133168) rotate(0 166.380859375 79.57226562499997)"><path d="M0.9896659274880842 0.7598169835640344 C82.88551762849231 2.625396946105859, 163.44044490849177 2.8734405579721107, 333.4951732238796 -1.1503619941351482 M-0.32388497335409555 -0.023179844297320628 C124.57865022640998 -1.5522901486850622, 250.50019744934778 -1.2462476396094027, 332.5520796982579 -0.2669678734806072 M331.3400411661714 -1.798648988828063 C334.6742772592353 49.11044089489188, 331.61877514255514 99.0118041093003, 332.0913204606622 158.34870662726462 M333.5791043164208 0.01867670100182295 C333.63876584837675 53.505444166244345, 334.06462205121755 107.71859388704107, 332.3543230714276 159.7477308837697 M331.723372153509 159.4911023667534 C265.6244216733783 158.89842444564707, 195.5134603390285 159.81918721530153, -0.5471415099301614 159.85093727992984 M332.2019177774929 159.58410970084228 C258.1820861053217 159.27923549379096, 182.612372421465 159.69855254960953, -0.43400170731823734 159.15124683511462 M0.08894050680100918 160.39173504151404 C-1.5313921257113907 118.5109585985072, -1.4431526347255204 75.90382755650134, -1.9121491257101297 -1.350447153672576 M0.9645699979737401 159.9029034404084 C0.49878963370105334 106.1204717896242, 1.7493509604432256 53.72354104673795, -0.6005490003153682 0.8992057768628001" stroke="#000000" stroke-width="1" fill="none"></path></g><g transform="translate(363.078125 287.1522067513316) rotate(352.257907858649 30.5 12.5)"><text x="0" y="18" font-family="Virgil, Segoe UI Emoji" font-size="20px" fill="#000000" text-anchor="start" style="white-space: pre;" direction="ltr">deploy</text></g><g transform="translate(450.27734375 257.6443942513316) rotate(0 61.4296875 23.921875)"><path d="M-1.3301645461469889 -0.37280706129968166 C37.948912909317 -0.7401997930106883, 76.77987596963939 -0.3619885927734141, 124.83495981059966 -0.5456075426191092 M-0.601989078335464 -0.6148003311827779 C31.554817665142757 -1.1755878174777898, 61.73000838841834 -1.1599924707885656, 122.229155045934 0.6525972811505198 M120.92064411006865 -0.47878787480294704 C123.30620167359271 12.515516061332892, 122.3913150201694 26.09456158987596, 123.52150416932997 49.48088272847235 M122.9892570795491 -0.4621380837634206 C123.02278032062543 10.388811647941475, 123.37443780062688 18.896960285591195, 122.34363747853783 48.67785150092095 M123.80031896196303 48.14973791874945 C73.12055851559415 47.16712996104892, 26.029670978771165 47.89702191690143, -0.05181818641722202 46.52807345427573 M122.80441547650841 46.89259153883904 C92.91290681114621 49.86861758073864, 62.11210878573763 49.444120840635875, -0.4766287384554744 48.49791601579636 M-1.6711814943701029 46.241835260763764 C1.941018985719129 37.81305722091638, -1.8058340678506648 26.71523659378872, 1.125185614451766 1.8347952011972666 M-0.5234267292544246 47.512102159671485 C-1.1420811201256584 34.048028345542846, -1.0667316998165917 22.324100214702774, -0.24992363434284925 -0.06375336367636919" stroke="#000000" stroke-width="1" fill="none"></path></g><g transform="translate(489.26953125 269.0662692513316) rotate(0 20.5 12.5)"><text x="20.5" y="18" font-family="Virgil, Segoe UI Emoji" font-size="20px" fill="#000000" text-anchor="middle" style="white-space: pre;" direction="ltr">ECS</text></g><g transform="translate(591.5859375 254.36314425133162) rotate(0 37.13671875 28.873046875)"><path d="M49.893404458962 1.8849978696914995 C56.96426458544007 3.2844415783312986, 64.30826017776982 8.353918146312775, 68.28194577368015 13.435061700973586 C72.25563136959047 18.516205255634397, 74.6871483395001 26.256288211792505, 73.73551803442399 32.37185919765636 C72.78388772934788 38.487430183520225, 68.29928598532882 45.92921241930853, 62.572163943223515 50.12848761615674 C56.84504190111821 54.32776281300495, 47.38276060443281 57.08900383595949, 39.37278578179213 57.56751037874565 C31.362810959151453 58.046016921531816, 21.000504777262567 56.71606500844365, 14.512315007379428 52.999526872873744 C8.024125237496289 49.28298873730384, 2.394409151873851 41.22931213656348, 0.44364716249329206 35.26828156532624 C-1.5071148268872665 29.307250994089006, -0.538527855222442 22.75326682502911, 2.807743071096077 17.233343445450334 C6.154013997414596 11.713420065871556, 13.304875710933487 4.957675653063722, 20.521272720404404 2.148741287853568 C27.73766972987532 -0.6601930773565869, 40.63726826469967 0.37721147663814253, 46.10612512792159 0.3797372541894042 C51.5749819911435 0.38226303174066584, 51.68851069323169 1.3179340944239732, 53.3344138997359 2.1638959531611377 C54.98031710624011 3.009857811898302, 56.369806846631995 4.879469891148509, 55.98154436694685 5.455508406612392 M24.242253275979703 2.4741674884018003 C31.2539450846772 0.44630579317805985, 43.08669711879903 1.4451695317916136, 50.59785622661812 3.2433903799020136 C58.10901533443721 5.041611228012414, 65.36650031678752 8.131303837596487, 69.30920792289426 13.2634925770642 C73.251915529001 18.395681316531913, 75.38059399730426 27.939440445817468, 74.25410186325854 34.03652281670829 C73.12760972921282 40.133605187599116, 68.36373559848158 46.02877988936696, 62.5502551186199 49.84598680240914 C56.73677463875821 53.66319371545133, 47.304469426583125 56.612353793206026, 39.373218984088425 56.93976429496139 C31.441968541593724 57.26717479671676, 21.377097903075633 55.127310989835394, 14.962752463651693 51.81044981294133 C8.548407024227753 48.493588636047264, 2.607490632639178 42.83479573088791, 0.8871463475447854 37.03859723359701 C-0.8331979375496068 31.24239873630611, 1.1678287251938744 22.84441045048396, 4.64068675308534 17.03325882919593 C8.113544780976806 11.2221072079079, 18.421092104424453 4.584251412858643, 21.724294514893582 2.1716875058688245 C25.027496925362712 -0.24087640112099473, 23.809024901814677 2.63927762674283, 24.459901215900118 2.5578753872570132 C25.11077752998556 2.4764731477711965, 25.219798023772753 1.352208150004462, 25.629552399406222 1.6832740689539243" stroke="#000000" stroke-width="1" fill="none"></path></g><g transform="translate(605.98828125 270.1268161263316) rotate(0 24.5 12.5)"><text x="24.5" y="18" font-family="Virgil, Segoe UI Emoji" font-size="20px" fill="#000000" text-anchor="middle" style="white-space: pre;" direction="ltr">mysql</text></g><g transform="translate(617.8828125 174.94126925133168) rotate(0 61.12109375 24.916015625)"><path d="M-0.7321337219327688 -0.8268914166837931 C45.41851822167883 1.9413873632254401, 90.24338929676016 -0.8684635083375177, 121.58596965111794 -0.29178338684141636 M-0.11463328916579485 0.5364986779168248 C31.86936970126336 0.1772115902518998, 64.97266876560609 -0.2940498216533889, 121.87186622899027 0.22192708868533373 M122.05911561287941 -1.0630631987005472 C123.12727686583827 19.743477071972663, 121.88928475797007 34.77774523266052, 123.29551770724358 51.134465103968964 M121.33509564679117 -0.23084624391049147 C122.74772374866878 19.965687443985733, 121.66047104237948 38.586336312851195, 121.35254285018893 49.79514021892099 M122.04696872271599 50.426432972773895 C95.31059292371138 50.91556351997401, 68.87746457648902 50.326602693577065, -0.4984647389501333 48.44061738811432 M122.22508165519686 50.115796756930635 C90.95069648221616 50.322208476144795, 60.62464791049279 50.61364046939087, -0.031241473741829395 49.774852258153246 M1.4272874239832163 50.42327434383331 C-0.5286310812557712 33.3217439181757, 0.9781239727412686 19.379459937220226, -1.1059752460569143 1.4688975866883993 M-0.6309850784018636 49.55131171364336 C-0.7754463850438696 32.45661352347196, -1.1282306312501533 13.379841549426047, -0.001929369755089283 0.8673925520852208" stroke="#000000" stroke-width="1" fill="none"></path></g><g transform="translate(451.53125 171.84556612633168) rotate(0 61.12109375 24.916015625)"><path d="M1.7951869424432516 -0.5311013218015432 C42.02557030945537 1.8145303361639527, 87.14432609773213 -1.0601404673829529, 120.5172056015581 1.3987803105264902 M0.474836272187531 0.8216947643086314 C39.90562746561846 0.9373936843245612, 79.97318032439362 1.2785724889605627, 121.50212736148389 0.5570536879822612 M122.16159046255054 1.5004052761942148 C120.52332736749317 11.931051491521426, 123.33852608699466 25.038663420349614, 121.74762851558627 48.97529461421071 M122.43270821589978 0.6254771975800395 C122.4600257527334 15.777852264674944, 122.94647269959276 33.1687555834178, 121.62212107796223 50.605773064307854 M121.90692121349277 50.19311525858937 C96.12123294075501 48.77045328268685, 64.5616856439694 50.18850327381768, 1.0248863752931356 50.12225302495061 M122.3776454748586 50.523935648612664 C78.56974971215459 48.98350230655843, 32.539301649951085 48.85840494237119, 0.9015739085152745 49.70616919081657 M1.8421533163636923 48.41476544179021 C-1.2734591564803486 33.52839296155688, 0.03631124881216252 15.951920765137032, -0.021687323227524757 1.1312204841524363 M0.7816023947671056 50.56122905295341 C-1.2831629093730952 31.09422068134917, -0.5087540026748683 14.786577963736626, 0.39544801134616137 0.6709556905552745" stroke="#000000" stroke-width="1" fill="none"></path></g><g transform="translate(481.6953125 186.16392550133168) rotate(0 19.5 12.5)"><text x="19.5" y="18" font-family="Virgil, Segoe UI Emoji" font-size="20px" fill="#000000" text-anchor="middle" style="white-space: pre;" direction="ltr">SLB</text></g><g><g transform="translate(508.0078734982735 223.35134727397332) rotate(0 -0.7786290931938424 16.92401388789827)"><path d="M-0.9740212764590979 -0.9810359571129084 C-1.3179473663790113 4.915560030376292, -2.080820121577922 28.896323870298154, -2.272737010448031 34.829063732909425 M0.7154788240604102 1.1183162200637162 C0.7379997292796185 6.717814568111427, -0.10172214856276329 27.83457928505603, -0.18379251760502946 33.06867775746287" stroke="#000000" stroke-width="1" fill="none"></path></g><g transform="translate(508.0078734982735 223.35134727397332) rotate(0 -0.7786290931938424 16.92401388789827)"><path d="M-6.956790574416791 15.170060224371962 C-3.133812568218701 20.003575867756204, -1.9185773503058239 26.85151332907948, 0.9827839564205334 34.55659373292891 M-5.7827714850678245 17.277725338155545 C-4.26925057725826 20.679582704797422, -3.2605208798548877 24.742643214932023, -1.0000306882464927 33.609953968349124" stroke="#000000" stroke-width="1" fill="none"></path></g><g transform="translate(508.0078734982735 223.35134727397332) rotate(0 -0.7786290931938424 16.92401388789827)"><path d="M4.72056443955303 15.506278133758485 C5.2454345937978015 20.150005987408672, 3.1610195259382383 26.90293892763433, 0.9827839564205334 34.55659373292891 M5.894583528901997 17.613943247542068 C4.583499267116465 20.949913671305378, 2.7680194283584076 24.93165869306254, -1.0000306882464927 33.609953968349124" stroke="#000000" stroke-width="1" fill="none"></path></g></g><g transform="translate(91.76953125 179.38267550133168) rotate(0 55.765625 26.19140625)"><path d="M0.19129890762269497 -1.8104301448911428 C34.549926102711474 0.5992754992385744, 66.3530780628149 2.7856856283088565, 110.44076812826097 1.349569285288453 M0.04671208281069994 0.8389493552967906 C40.28911780822964 -0.5997689489516778, 77.80036527711782 -0.8681101028117699, 111.50620074290782 0.8473109034821391 M110.2957242783159 -0.06211141310632229 C113.0620237326566 18.723096314559374, 111.0795692539159 38.23067991197605, 111.19192773662508 52.95783712901175 M111.24458189029247 0.24367630761116743 C112.1285704744023 17.756953231026277, 112.57133913757025 37.013397077964335, 111.3263974012807 51.943019720725715 M112.06569797359407 50.72094585932791 C69.60019861013569 52.70555674157018, 26.885742566379477 53.199336102818194, -1.4890816155821085 52.92414673604071 M111.23151896614581 52.066077324561775 C85.94732084222196 52.310804504161645, 57.83827549692359 52.54542546272831, 0.6158676268532872 52.9290283350274 M1.1715691145509481 53.19554098881781 C-0.6282386052505899 32.84773728347136, -0.3338948357002664 15.386494018188387, 0.9645735677331686 0.9306880477815866 M-0.3252098439261317 52.17843634169549 C0.2963445149154723 32.95553100321922, 0.284399356672293 15.381004990609654, -0.5469889221712947 0.29773786943405867" stroke="#000000" stroke-width="1" fill="none"></path></g><g transform="translate(107.53515625 192.58580050133168) rotate(0 40 12.5)"><text x="40" y="18" font-family="Virgil, Segoe UI Emoji" font-size="20px" fill="#000000" text-anchor="middle" style="white-space: pre;" direction="ltr">git repo</text></g><g transform="translate(23.3984375 254.02330050133162) rotate(0 123.8984375 26.19140625)"><path d="M0.7237869716103065 -0.559432798891837 C66.00434655301768 2.4396670847696185, 131.74815112482153 3.332988754681867, 247.4088623872094 -0.5263871143080608 M-0.6334891346013141 0.2193423224680131 C82.33200322515188 0.30814077943560203, 166.52733134100507 0.771259500927833, 248.60273752411075 -0.7692331128903079 M247.5426474455744 0.18172032199800014 C247.81551321380283 17.308473082342974, 248.9024760925069 35.8994039280151, 247.13282074965537 53.82009411416948 M248.58916122000664 0.44812594074755907 C247.52505304783955 13.924253935201705, 247.6069573697485 26.67795170046884, 247.01837638299912 51.476071250624955 M247.09995564623904 53.78527987957567 C156.55712188891158 53.66221577917982, 64.29549067529712 54.09807369208931, -0.38641035451662914 53.730867002794724 M247.20149736552253 53.1559469629661 C192.55079752003462 52.824861520933325, 139.15952333211953 52.055616859113776, 0.2731840112260968 52.00624956992096 M1.1163475159555674 51.59375519119203 C-0.9981640644462458 41.70102905217573, 1.1082041792480597 31.11806205317407, 1.0108306650072336 1.807030564174056 M-0.14368509966880083 52.559366387315094 C0.13247797735130007 39.4360712622547, -0.1279314672192413 25.664625693163543, -0.9582081111148 0.33626837749034166" stroke="#000000" stroke-width="1" fill="none"></path></g><g transform="translate(28.10546875 269.7186130013316) rotate(0 119.5 12.5)"><text x="119.5" y="18" font-family="Virgil, Segoe UI Emoji" font-size="20px" fill="#000000" text-anchor="middle" style="white-space: pre;" direction="ltr">CI/CD (Github Actions)</text></g><g><g transform="translate(274.2775432329054 289.9288443214531) rotate(0 84.03555563706908 -6.887320001223202)"><path d="M-0.288061187043786 0.5984402094036341 C27.94193167667837 -1.5477064619601681, 140.48674910124396 -10.392490870327212, 168.35917246118194 -12.77615470782871 M1.7615679604187608 -0.1329826259985567 C30.00225115917624 -2.605966807232888, 140.5285003624112 -12.337363067053712, 167.88748476203537 -14.373080211850056" stroke="#000000" stroke-width="1" fill="none"></path></g><g transform="translate(274.2775432329054 289.9288443214531) rotate(0 84.03555563706908 -6.887320001223202)"><path d="M141.6305032696138 -0.32294394706194574 C148.14921649577752 -5.3068350055160405, 152.46147948789937 -5.920578806649461, 167.94502709168947 -12.747285478906878 M140.31458986713838 -2.7787948378995555 C146.35032674005697 -5.168838386091524, 153.6231607744818 -8.578125406675216, 168.58073507264263 -14.487336889067837" stroke="#000000" stroke-width="1" fill="none"></path></g><g transform="translate(274.2775432329054 289.9288443214531) rotate(0 84.03555563706908 -6.887320001223202)"><path d="M139.9476173970617 -20.775031799547904 C146.8452080619863 -21.359021617693283, 151.51918146702863 -17.576903962702207, 167.94502709168947 -12.747285478906878 M138.63170399458627 -23.230882690385513 C145.11355975333308 -20.783093591327095, 152.78503191420515 -19.347737183366238, 168.58073507264263 -14.487336889067837" stroke="#000000" stroke-width="1" fill="none"></path></g></g><g transform="translate(559.9609375 117.15611300133168) rotate(0 26 12.5)"><text x="0" y="18" font-family="Virgil, Segoe UI Emoji" font-size="20px" fill="#000000" text-anchor="start" style="white-space: pre;" direction="ltr">Aliyun</text></g><g transform="translate(76.81640625 118.28501925133168) rotate(0 77 12.5)"><text x="0" y="18" font-family="Virgil, Segoe UI Emoji" font-size="20px" fill="#000000" text-anchor="start" style="white-space: pre;" direction="ltr">Github (private)</text></g><g transform="translate(435.00390625 384.6717380013316) rotate(0 162.171875 31.25)"><path d="M-1.34077153252477 -1.140524553168625 C68.29262682966497 2.0838453836065853, 136.4434759957097 2.836633516565028, 325.1953487679879 -1.123219051796196 M0.2864575664428192 -0.44028241367403764 C67.3489399407974 -0.378921592876647, 134.75552783448816 -0.9977681576725677, 324.24462112006967 0.24465833450678878 M323.42287695966655 0.5374700669199228 C324.53077096852934 22.582684177206822, 326.116881858441 44.5404597041197, 322.98571402393276 60.74539926089344 M324.8249245407059 0.7762544183060527 C325.1198588322149 17.33616355597041, 324.25301522121293 35.63984996872021, 325.0599344791844 63.440994712524095 M324.01416742409793 63.5627703330722 C203.6023279434496 64.58309775912772, 81.49814520478644 63.289693524012755, 0.14381194124628885 63.41348414960915 M324.3981213412832 63.04384663308333 C246.41690226333316 62.75232681926111, 169.18572034277094 63.90098174892327, -0.3029336542237797 62.863126588930385 M-1.9220881406217813 61.38336404599247 C-1.3646540864137933 42.314510241849334, -0.9514519794611259 25.68177742464467, 1.6884288247674704 -1.852199649438262 M0.5563336731866002 63.28273839037863 C0.1210906662745399 42.76563154184258, 1.0439179994864387 22.342826870735728, -0.5290966806933284 -0.025873747654259205" stroke="#000000" stroke-width="1" fill="none"></path></g><g transform="translate(536.02734375 407.8787692513316) rotate(0 61.5 12.5)"><text x="0" y="18" font-family="Virgil, Segoe UI Emoji" font-size="20px" fill="#000000" text-anchor="start" style="white-space: pre;" direction="ltr">Mini Program</text></g><g><g transform="translate(267.60624878974386 296.60338865909955) rotate(0 93.09896316023674 42.22862403567018)"><path d="M-0.708148380741477 0.1695132281631231 C30.336501994288643 14.399823024673635, 155.64856307435375 70.14844571701376, 186.90607470121492 84.20424265036509 M1.1209349900297823 -0.7870962723903359 C32.036864694717465 13.667735423939549, 155.56473567733136 70.8661640489207, 186.46887348519897 85.2443443437308" stroke="#000000" stroke-width="1" fill="none"></path></g><g transform="translate(267.60624878974386 296.60338865909955) rotate(0 93.09896316023674 42.22862403567018)"><path d="M156.86076979406508 84.30667902444432 C165.53112849231056 85.27174424852723, 176.58801766775997 85.87347285926425, 185.87000358963644 85.19561564486622 M156.0491215230185 83.232987335035 C165.5382189405605 82.6059633912229, 174.6618419680317 84.37162649162963, 186.70612444190567 85.58527553297728" stroke="#000000" stroke-width="1" fill="none"></path></g><g transform="translate(267.60624878974386 296.60338865909955) rotate(0 93.09896316023674 42.22862403567018)"><path d="M165.4989939503737 65.69213938976074 C170.935822494008 73.18053083247055, 178.94185469903027 80.35656186557424, 185.87000358963644 85.19561564486622 M164.6873456793271 64.61844770035142 C171.78520384392533 69.39034390917257, 178.39640926288982 76.57002455602947, 186.70612444190567 85.58527553297728" stroke="#000000" stroke-width="1" fill="none"></path></g></g><g transform="translate(356.359375 354.7381442513316) rotate(24.454931988995348 30 12.5)"><text x="0" y="18" font-family="Virgil, Segoe UI Emoji" font-size="20px" fill="#000000" text-anchor="start" style="white-space: pre;" direction="ltr">upload</text></g><g transform="translate(657.00390625 187.35728487633168) rotate(0 22 12.5)"><text x="22" y="18" font-family="Virgil, Segoe UI Emoji" font-size="20px" fill="#000000" text-anchor="middle" style="white-space: pre;" direction="ltr">DNS</text></g><g><g transform="translate(611.1034029152245 199.79722888254332) rotate(0 -16.1131042267196 -0.007581311127324852)"><path d="M0.4159029152244329 0.04962079860270019 C-4.950500154308982 0.12249241252797555, -26.398985502682663 -0.051994687812640494, -31.71798981428151 0.006321185756189562 M-0.8248867836222054 -0.9699322274699808 C-6.387361326515682 -0.7531511770803957, -27.425514625757973 0.5707053440713743, -32.642111368663656 0.9547696052153538" stroke="#000000" stroke-width="1" fill="none"></path></g><g transform="translate(611.1034029152245 199.79722888254332) rotate(0 -16.1131042267196 -0.007581311127324852)"><path d="M-18.0397375061674 -5.406301825656251 C-24.55719170543171 -2.881234553557081, -28.97946108326831 0.240965981729532, -32.85809674545471 0.1416080603348986 M-18.75087183017279 -4.706715319803334 C-23.289750643098284 -3.078101701613652, -28.338171067911446 -1.862719397976935, -33.35788299273278 0.29236281615659176" stroke="#000000" stroke-width="1" fill="none"></path></g><g transform="translate(611.1034029152245 199.79722888254332) rotate(0 -16.1131042267196 -0.007581311127324852)"><path d="M-17.313060953106906 5.44001007275192 C-24.038663068663062 4.2794624601210165, -28.708028429181216 3.713529553203864, -32.85809674545471 0.1416080603348986 M-18.024195277112298 6.139596578604837 C-22.731477745756195 4.096331252682891, -28.02582240875676 1.6410694719260588, -33.35788299273278 0.29236281615659176" stroke="#000000" stroke-width="1" fill="none"></path></g></g><g transform="translate(14.016713083111199 381.29189103338024) rotate(0 137.28515624999994 32.76757812499994)"><path d="M-1.4866672311354354 -0.08424182609247484 C82.15516539638658 -0.6053076467443111, 160.40734120726222 0.8136331345278536, 274.25543552093853 0.8026041664886292 M0.07314041237920257 -0.3354386685130381 C61.268776730061724 -2.105972562985409, 123.39039564130269 -1.560285467954821, 274.9137656607011 -0.5611413868425819 M274.35874856077123 -0.40291050635278225 C273.91222398173267 18.268130940159953, 273.82339285504275 37.089526772048664, 275.25613457523275 66.85254981555038 M275.0636957408859 0.10242080967873335 C274.7645629402606 18.519695509723878, 274.3588475641219 39.58138225047947, 274.12740288395423 65.84508011024438 M273.39663035113006 66.40618440520122 C183.4408569640751 66.02334917551799, 92.82970831262558 65.56084588011778, -0.04132037391763067 66.00886930954987 M274.0582603834956 66.0927932549596 C200.1925266545851 66.47931953530221, 125.02880228059794 66.90250612462115, 0.17436052105398164 65.96166414049732 M-0.81492137350142 64.46553596295409 C0.30976739795896724 46.345796812155044, 0.660332175810072 29.993721617044464, -0.03294139541685581 1.8859018329530954 M0.6955412747338414 66.00802892725908 C0.12660576397476675 51.44325433419029, 0.5247214882999468 36.57654168417571, -0.01871140580624342 0.7817303268238902" stroke="#000000" stroke-width="1" fill="none"></path></g><g transform="translate(113.1749162081112 403.25868790838024) rotate(0 44.5 12.5)"><text x="44.5" y="18" font-family="Virgil, Segoe UI Emoji" font-size="20px" fill="#000000" text-anchor="middle" style="white-space: pre;" direction="ltr">OHTTPS</text></g><g><g transform="translate(277.3924741540675 373.8454973213958) rotate(0 85.83460392402372 -90.05489736831208)"><path d="M-0.974456963315606 -0.41207620762288566 C27.635340382561946 -30.291364657749792, 143.5313905825509 -149.68004621351787, 172.643664811363 -179.69771852900124 M0.7148144016042353 -1.6740201619639994 C29.068984304883447 -31.335590276700813, 142.843002967578 -148.61860856986323, 171.62704481147 -178.30173336447066" stroke="#000000" stroke-width="1" fill="none"></path></g><g transform="translate(277.3924741540675 373.8454973213958) rotate(0 85.83460392402372 -90.05489736831208)"><path d="M158.6817708114417 -151.1382385809674 C163.69947527917506 -159.7411127769845, 167.01579518297314 -172.07198586061008, 171.33029766902098 -178.58304652117974 M159.61207862349914 -150.24984275649777 C162.80948592180476 -160.6838687997551, 168.54642556953291 -170.22533136682145, 171.1934289900563 -177.37104882498122" stroke="#000000" stroke-width="1" fill="none"></path></g><g transform="translate(277.3924741540675 373.8454973213958) rotate(0 85.83460392402372 -90.05489736831208)"><path d="M143.94941962271815 -165.42381980253325 C154.54572734237829 -168.44891980130848, 163.49088667639342 -175.32165237270772, 171.33029766902098 -178.58304652117974 M144.8797274347756 -164.53542397806362 C153.03205293821887 -170.29587373797577, 163.72835317155824 -175.02837217262248, 171.1934289900563 -177.37104882498122" stroke="#000000" stroke-width="1" fill="none"></path></g></g><g transform="translate(360.7460937499999 218.41783175133168) rotate(313.6398318832273 30.5 12.5)"><text x="0" y="18" font-family="Virgil, Segoe UI Emoji" font-size="20px" fill="#000000" text-anchor="start" style="white-space: pre;" direction="ltr">deploy</text></g><g><g transform="translate(347.54296875 10.835800501331676) rotate(0 2.566457638517022 275.08487198017536)"><path d="M-0.6819971647113562 0.11486221812665454 C0.1955365850279729 91.68256359361114, 4.888665389393767 458.24734996818006, 5.814912441745401 550.0548817422241" stroke="#000000" stroke-width="1.5" fill="none" stroke-dasharray="12 8"></path></g></g><g><g transform="translate(815.927734375 9.640488001331676) rotate(0 2.860533043369742 275.5987396214157)"><path d="M0.8165971186012031 0.35951199866831307 C1.6572845882425709 92.12042676545678, 4.174610279624662 459.29314630366855, 4.904468968138099 550.8379672441631" stroke="#000000" stroke-width="1.5" fill="none" stroke-dasharray="12 8"></path></g></g><g transform="translate(919.671875 257.5506442513316) rotate(0 90.080078125 42.080078125)"><path d="M-1.362612897530198 1.3128233198076487 C61.19795008984693 -1.5247705738498551, 122.1067243656762 -0.9481207292034013, 181.9245722349733 -1.8759893532842398 M0.17921398300677538 0.8381737200543284 C54.59398050788842 -0.9078547313272065, 110.52984707702055 -1.9035117878972596, 181.1075461031869 -0.5443968148902059 M181.94960284791887 -1.6232718583196402 C179.12879143291485 19.435064722640163, 178.52654401594174 40.72810627491344, 179.44345874153078 84.45472493208945 M180.15127087850124 -0.905767616815865 C179.76143507961842 21.62304087937628, 179.38858141307446 43.169125185810124, 180.02645377535373 84.20800259988755 M180.0273425038904 85.10781779326499 C134.04821462597863 83.05378340882208, 87.65350409120654 85.11919897002127, 0.5324956234544516 84.2563960198313 M179.80283693689853 83.99959352891892 C111.26690247269761 83.37814368356001, 44.00603533790343 83.30451612222922, 0.5101550342515111 83.85381460469216 M1.3495489414781332 84.23711034096777 C-2.1314591370812197 52.81605532442154, 0.27966395986168213 21.989202349501277, -1.800077373161912 0.46512010134756565 M0.30313212890177965 84.65115046780556 C0.3834682130165674 60.20228032802879, -0.29090103275102597 35.26574215083746, -0.7906848369166255 0.8522371975705028" stroke="#000000" stroke-width="1" fill="none"></path></g><g transform="translate(981.751953125 286.8846286263316) rotate(0 28 12.5)"><text x="28" y="18" font-family="Virgil, Segoe UI Emoji" font-size="20px" fill="#000000" text-anchor="middle" style="white-space: pre;" direction="ltr">Users</text></g><g transform="translate(835.7405461204373 336.5212068858244) rotate(337.61160925003077 33 12.5)"><text x="0" y="18" font-family="Virgil, Segoe UI Emoji" font-size="20px" fill="#000000" text-anchor="start" style="white-space: pre;" direction="ltr">wechat</text></g><g transform="translate(835.875 223.82017550133168) rotate(25.86726974330508 37.5 12.5)"><text x="0" y="18" font-family="Virgil, Segoe UI Emoji" font-size="20px" fill="#000000" text-anchor="start" style="white-space: pre;" direction="ltr">browser</text></g><g transform="translate(562.60546875 351.7108005013316) rotate(0 33.5 12.5)"><text x="0" y="18" font-family="Virgil, Segoe UI Emoji" font-size="20px" fill="#000000" text-anchor="start" style="white-space: pre;" direction="ltr">Wechat</text></g><g><g transform="translate(913.18359375 307.5193942513316) rotate(0 -85.19462877871467 36.586566413361595)"><path d="M-0.577465757355094 1.15042671225965 C-28.992476817592976 13.152319219335913, -142.70303784273565 59.464199557527905, -171.31154751442372 71.09461875222624 M1.3202259906940164 0.708796790856868 C-27.089241852480917 12.967320143599064, -142.66852501662447 60.582828769702466, -171.7094835481234 72.4643360358663" stroke="#000000" stroke-width="1" fill="none"></path></g><g transform="translate(913.18359375 307.5193942513316) rotate(0 -85.19462877871467 36.586566413361595)"><path d="M-147.61987577259026 54.001998734931284 C-155.35787363031324 57.04619904298038, -160.76116497641806 62.55159479010892, -170.81222101027146 72.22430068636314 M-150.24154481823973 51.41549618941807 C-157.31131590893682 59.49880792948449, -166.38880001489414 67.54929790626184, -171.80217222502455 72.28921333989129" stroke="#000000" stroke-width="1" fill="none"></path></g><g transform="translate(913.18359375 307.5193942513316) rotate(0 -85.19462877871467 36.586566413361595)"><path d="M-139.81727963364096 72.98197491716853 C-149.21691891904973 71.59394232964291, -156.4268486341236 72.70465294860267, -170.81222101027146 72.22430068636314 M-142.43894867929043 70.39547237165532 C-152.21103174391044 71.6358072851865, -164.11837863513546 72.80259761803826, -171.80217222502455 72.28921333989129" stroke="#000000" stroke-width="1" fill="none"></path></g></g><g transform="translate(677.64453125 253.49790987633162) rotate(0 37.13671875 28.873046875)"><path d="M20.088087935788558 2.5806054910602647 C26.846067151510866 -0.19384280976520607, 38.98922297693986 0.053816915877738625, 46.62116359625673 1.3628630237717267 C54.2531042155736 2.671909131665715, 61.134503631355955 5.8510311844626095, 65.87973165168978 10.434882138424193 C70.6249596720236 15.018733092385776, 75.08270343791335 22.519454310944408, 75.09253171825969 28.865968747541228 C75.10235999860603 35.212483184138044, 71.17535998184545 43.71898411834643, 65.93870133376782 48.513968758005106 C60.7020426856902 53.308953397663785, 51.345979710519586 56.8183984340934, 43.67257982979398 57.63587658549329 C35.99917994906838 58.45335473689318, 26.87536724102793 56.39054810229214, 19.898302049414177 53.418837666404436 C12.921236857800423 50.44712723051673, 4.81795724856476 45.41648310747672, 1.8101886801114588 39.80561397016703 C-1.197579888341842 34.19474483285734, -0.5143546256285236 25.684914444093536, 1.8516906386943717 19.753622842546264 C4.217735903017267 13.822331240998992, 11.472724899764659 7.573276048784521, 16.00646026604883 4.217864360883393 C20.540195632333003 0.8624526729822648, 25.34438505673445 0.2222855847692854, 29.054102836399398 -0.37884728486050534 C32.76382061606435 -0.9799801544902961, 37.94698295032681 0.03825453941641577, 38.26476694403853 0.6110671431046484 M31.114363314827926 1.720007897346374 C38.07699789754261 0.5467718217017292, 48.09800329963709 1.8121796027708323, 54.72527566541821 4.414383366972391 C61.352548031199326 7.016587131173949, 68.03548913503161 11.760386330803708, 70.87799750951463 17.333230482555727 C73.72050588399765 22.906074634307746, 74.16006332708213 31.682200008847587, 71.78032591231627 37.851448277484494 C69.40058849755042 44.0206965461214, 62.815329721660945 51.1591331395276, 56.59957302091951 54.34872009437717 C50.38381632017807 57.538307049226745, 42.10210477818573 57.84575397519379, 34.48578570786766 56.98897000658192 C26.869466637549596 56.13218603797006, 16.546281886021458 53.4528098597456, 10.901658599011107 49.208016282705984 C5.257035312000757 44.96322270566637, 1.342185224852424 37.34935139672932, 0.6180459858055656 31.520208544344232 C-0.10609325324129293 25.691065691959142, 2.2419909062711127 19.01614170593671, 6.5568231647299555 14.233159168395442 C10.871655423188798 9.450176630854173, 22.6416986179892 5.039789162675843, 26.507039536558622 2.8223133190966223 C30.372380455128045 0.6048374755174017, 28.998009967718563 1.3655445323467912, 29.748868676146504 0.9283041069201197 C30.499727384574445 0.4910636814934482, 30.473286262877423 0.02307928734719647, 31.01219178712627 0.19887076653659364" stroke="#000000" stroke-width="1" fill="none"></path></g><g transform="translate(697.046875 269.2615817513316) rotate(0 19.5 12.5)"><text x="19.5" y="18" font-family="Virgil, Segoe UI Emoji" font-size="20px" fill="#000000" text-anchor="middle" style="white-space: pre;" direction="ltr">OSS</text></g><g><g transform="translate(907.27734375 274.4881442513316) rotate(0 -79.24617735685774 -37.997695627091446)"><path d="M-1.1910639848560094 0.5503870155662298 C-27.530188255136213 -11.800206388408938, -131.78367352547744 -62.11946186361213, -157.78790285252035 -74.75625025965273 M0.3844886937551202 -0.2062637466005981 C-26.15773812285935 -12.849871251961837, -132.50892607343073 -64.26520411628609, -158.87684340747074 -76.54577826974914" stroke="#000000" stroke-width="1" fill="none"></path></g><g transform="translate(907.27734375 274.4881442513316) rotate(0 -79.24617735685774 -37.997695627091446)"><path d="M-128.09500721627325 -74.14522711686188 C-137.51321556540253 -74.40214208543384, -147.94371491059505 -74.96187316639644, -157.32375942701475 -75.62895767843351 M-129.09513327171504 -73.23004934783422 C-138.1268907824596 -73.69750782651941, -145.9927977464993 -75.8077716118784, -159.82385672321544 -75.82554258206859" stroke="#000000" stroke-width="1" fill="none"></path></g><g transform="translate(907.27734375 274.4881442513316) rotate(0 -79.24617735685774 -37.997695627091446)"><path d="M-136.91253311530812 -55.61494812798292 C-143.40331744596642 -61.72460026201448, -151.00718047894298 -68.22458715455228, -157.32375942701475 -75.62895767843351 M-137.91265917074992 -54.69977035895527 C-144.28480595978962 -60.60752795355167, -149.57301354006114 -68.13489958499186, -159.82385672321544 -75.82554258206859" stroke="#000000" stroke-width="1" fill="none"></path></g></g></svg>